<?xml version="1.0" encoding="UTF-8" standalone="no"?>
<svg width="105.833mm" height="141.111mm"
 viewBox="0 0 300 400"
 xmlns="http://www.w3.org/2000/svg" xmlns:xlink="http://www.w3.org/1999/xlink"  version="1.2" baseProfile="tiny">
<title>Qt Svg Document</title>
<desc>Generated with Qt</desc>
<defs>
</defs>
<g fill="none" stroke="black" stroke-width="1" fill-rule="evenodd" stroke-linecap="square" stroke-linejoin="bevel" >

<g fill="none" stroke="#a0a0a4" stroke-opacity="1" stroke-width="1" stroke-linecap="square" stroke-linejoin="bevel" transform="matrix(1,0,0,1,0,0)"
font-family="MS Shell Dlg 2" font-size="8.25" font-weight="400" font-style="normal" 
>
<path vector-effect="non-scaling-stroke" fill-rule="evenodd" d="M0,0 L300,0 L300,400 L0,400 L0,0"/>
</g>

<g fill="none" stroke="#a0a0a4" stroke-opacity="1" stroke-width="1" stroke-linecap="square" stroke-linejoin="bevel" transform="matrix(50,0,0,-50,200,200)"
font-family="MS Shell Dlg 2" font-size="8.25" font-weight="400" font-style="normal" 
>
</g>

<g fill="none" stroke="#a0a0a4" stroke-opacity="1" stroke-width="1" stroke-linecap="square" stroke-linejoin="bevel" transform="matrix(50,0,0,-50,200,75)"
font-family="MS Shell Dlg 2" font-size="8.25" font-weight="400" font-style="normal" 
>
</g>

<g fill="#ffffff" fill-opacity="1" stroke="none" transform="matrix(50,0,0,-50,121.317,66.9876)"
font-family="MS Shell Dlg 2" font-size="8.25" font-weight="400" font-style="normal" 
>
<path vector-effect="non-scaling-stroke" fill-rule="evenodd" d="M0,0 L-1.13605,-0.160249 L-0.57365,0.839751 L0.57365,0.839751 L1.13605,-0.160249 L0,0"/>
</g>

<g fill="none" stroke="#dcdcfa" stroke-opacity="1" stroke-width="1" stroke-linecap="square" stroke-linejoin="bevel" transform="matrix(50,0,0,-50,121.317,66.9876)"
font-family="MS Shell Dlg 2" font-size="8.25" font-weight="400" font-style="normal" 
>
<path vector-effect="non-scaling-stroke" fill-rule="evenodd" d="M0,0 L-1.13605,-0.160249 L-0.57365,0.839751 L0.57365,0.839751 L1.13605,-0.160249 L0,0"/>
</g>

<g fill="none" stroke="#c8c8c8" stroke-opacity="1" stroke-dasharray="4,2" stroke-dashoffset="0" stroke-width="1" stroke-linecap="square" stroke-linejoin="bevel" transform="matrix(50,0,0,-50,121.317,66.9876)"
font-family="MS Shell Dlg 2" font-size="8.25" font-weight="400" font-style="normal" 
>
<path vector-effect="non-scaling-stroke" fill-rule="evenodd" d="M-0.57365,0.839751 L0,0 L0.57365,0.839751"/>
</g>

<g fill="#dcdcfa" fill-opacity="1" stroke="#dcdcfa" stroke-opacity="1" stroke-width="1" stroke-linecap="square" stroke-linejoin="bevel" transform="matrix(50,0,0,-50,121.317,66.9876)"
font-family="MS Shell Dlg 2" font-size="8.25" font-weight="400" font-style="normal" 
>
<path vector-effect="non-scaling-stroke" fill-rule="evenodd" d="M0.59865,0.839751 C0.59865,0.853558 0.587457,0.864751 0.57365,0.864751 C0.559843,0.864751 0.54865,0.853558 0.54865,0.839751 C0.54865,0.825944 0.559843,0.814751 0.57365,0.814751 C0.587457,0.814751 0.59865,0.825944 0.59865,0.839751 "/>
<path vector-effect="non-scaling-stroke" fill-rule="evenodd" d="M-0.54865,0.839751 C-0.54865,0.853558 -0.559843,0.864751 -0.57365,0.864751 C-0.587457,0.864751 -0.59865,0.853558 -0.59865,0.839751 C-0.59865,0.825944 -0.587457,0.814751 -0.57365,0.814751 C-0.559843,0.814751 -0.54865,0.825944 -0.54865,0.839751 "/>
</g>

<g fill="none" stroke="#a0a0a4" stroke-opacity="1" stroke-width="1" stroke-linecap="square" stroke-linejoin="bevel" transform="matrix(50,0,0,-50,200,75)"
font-family="MS Shell Dlg 2" font-size="8.25" font-weight="400" font-style="normal" 
>
</g>

<g fill="#ffffff" fill-opacity="0.498039" stroke="none" transform="matrix(50,0,0,-50,193.197,66.9876)"
font-family="MS Shell Dlg 2" font-size="8.25" font-weight="400" font-style="normal" 
>
<path vector-effect="non-scaling-stroke" fill-rule="evenodd" d="M0,0 L-1.13605,-0.160249 L-0.57365,0.839751 L0.57365,0.839751 L1.13605,-0.160249 L0,0"/>
</g>

<g fill="none" stroke="#0000c8" stroke-opacity="1" stroke-width="1" stroke-linecap="square" stroke-linejoin="bevel" transform="matrix(50,0,0,-50,193.197,66.9876)"
font-family="MS Shell Dlg 2" font-size="8.25" font-weight="400" font-style="normal" 
>
<path vector-effect="non-scaling-stroke" fill-rule="evenodd" d="M0,0 L-1.13605,-0.160249 L-0.57365,0.839751 L0.57365,0.839751 L1.13605,-0.160249 L0,0"/>
</g>

<g fill="none" stroke="#c8c8c8" stroke-opacity="1" stroke-dasharray="4,2" stroke-dashoffset="0" stroke-width="1" stroke-linecap="square" stroke-linejoin="bevel" transform="matrix(50,0,0,-50,193.197,66.9876)"
font-family="MS Shell Dlg 2" font-size="8.25" font-weight="400" font-style="normal" 
>
<path vector-effect="non-scaling-stroke" fill-rule="evenodd" d="M-0.57365,0.839751 L0,0 L0.57365,0.839751"/>
</g>

<g fill="#0000c8" fill-opacity="1" stroke="#000000" stroke-opacity="1" stroke-width="1" stroke-linecap="square" stroke-linejoin="bevel" transform="matrix(50,0,0,-50,193.197,66.9876)"
font-family="MS Shell Dlg 2" font-size="8.25" font-weight="400" font-style="normal" 
>
<path vector-effect="non-scaling-stroke" fill-rule="evenodd" d="M0.59865,0.839751 C0.59865,0.853558 0.587457,0.864751 0.57365,0.864751 C0.559843,0.864751 0.54865,0.853558 0.54865,0.839751 C0.54865,0.825944 0.559843,0.814751 0.57365,0.814751 C0.587457,0.814751 0.59865,0.825944 0.59865,0.839751 "/>
<path vector-effect="non-scaling-stroke" fill-rule="evenodd" d="M-0.54865,0.839751 C-0.54865,0.853558 -0.559843,0.864751 -0.57365,0.864751 C-0.587457,0.864751 -0.59865,0.853558 -0.59865,0.839751 C-0.59865,0.825944 -0.587457,0.814751 -0.57365,0.814751 C-0.559843,0.814751 -0.54865,0.825944 -0.54865,0.839751 "/>
</g>

<g fill="none" stroke="#000000" stroke-opacity="1" stroke-width="1" stroke-linecap="square" stroke-linejoin="bevel" transform="matrix(50,0,0,-50,193.197,66.9876)"
font-family="MS Shell Dlg 2" font-size="8.25" font-weight="400" font-style="normal" 
>
<path vector-effect="non-scaling-stroke" fill-rule="evenodd" d="M0.62365,0.839751 C0.62365,0.867366 0.601264,0.889751 0.57365,0.889751 C0.546036,0.889751 0.52365,0.867366 0.52365,0.839751 C0.52365,0.812137 0.546036,0.789751 0.57365,0.789751 C0.601264,0.789751 0.62365,0.812137 0.62365,0.839751 "/>
<path vector-effect="non-scaling-stroke" fill-rule="evenodd" d="M-0.52365,0.839751 C-0.52365,0.867366 -0.546036,0.889751 -0.57365,0.889751 C-0.601264,0.889751 -0.62365,0.867366 -0.62365,0.839751 C-0.62365,0.812137 -0.601264,0.789751 -0.57365,0.789751 C-0.546036,0.789751 -0.52365,0.812137 -0.52365,0.839751 "/>
</g>

<g fill="none" stroke="#a0a0a4" stroke-opacity="1" stroke-width="1" stroke-linecap="square" stroke-linejoin="bevel" transform="matrix(50,0,0,-50,200,75)"
font-family="MS Shell Dlg 2" font-size="8.25" font-weight="400" font-style="normal" 
>
</g>

<g fill="none" stroke="#000000" stroke-opacity="1" stroke-width="1" stroke-linecap="square" stroke-linejoin="bevel" transform="matrix(50,0,0,-50,200,75)"
font-family="MS Shell Dlg 2" font-size="8.25" font-weight="400" font-style="normal" 
>
<path vector-effect="non-scaling-stroke" fill-rule="evenodd" d="M-3,0 L0,0 L0,-1 M-3,1 L1,1 L1,-1"/>
</g>

<g fill="none" stroke="#a0a0a4" stroke-opacity="1" stroke-width="1" stroke-linecap="square" stroke-linejoin="bevel" transform="matrix(50,0,0,-50,200,200)"
font-family="MS Shell Dlg 2" font-size="8.25" font-weight="400" font-style="normal" 
>
</g>

<g fill="none" stroke="#a0a0a4" stroke-opacity="1" stroke-width="1" stroke-linecap="square" stroke-linejoin="bevel" transform="matrix(50,0,0,-50,200,200)"
font-family="MS Shell Dlg 2" font-size="8.25" font-weight="400" font-style="normal" 
>
</g>

<g fill="#ffffff" fill-opacity="1" stroke="none" transform="matrix(50,0,0,-50,193.197,191.988)"
font-family="MS Shell Dlg 2" font-size="8.25" font-weight="400" font-style="normal" 
>
<path vector-effect="non-scaling-stroke" fill-rule="evenodd" d="M0,0 L-1.13605,-0.160249 L-0.57365,0.839751 L0.57365,0.839751 L1.13605,-0.160249 L0,0"/>
</g>

<g fill="none" stroke="#dcdcfa" stroke-opacity="1" stroke-width="1" stroke-linecap="square" stroke-linejoin="bevel" transform="matrix(50,0,0,-50,193.197,191.988)"
font-family="MS Shell Dlg 2" font-size="8.25" font-weight="400" font-style="normal" 
>
<path vector-effect="non-scaling-stroke" fill-rule="evenodd" d="M0,0 L-1.13605,-0.160249 L-0.57365,0.839751 L0.57365,0.839751 L1.13605,-0.160249 L0,0"/>
</g>

<g fill="none" stroke="#c8c8c8" stroke-opacity="1" stroke-dasharray="4,2" stroke-dashoffset="0" stroke-width="1" stroke-linecap="square" stroke-linejoin="bevel" transform="matrix(50,0,0,-50,193.197,191.988)"
font-family="MS Shell Dlg 2" font-size="8.25" font-weight="400" font-style="normal" 
>
<path vector-effect="non-scaling-stroke" fill-rule="evenodd" d="M-0.57365,0.839751 L0,0 L0.57365,0.839751"/>
</g>

<g fill="#dcdcfa" fill-opacity="1" stroke="#dcdcfa" stroke-opacity="1" stroke-width="1" stroke-linecap="square" stroke-linejoin="bevel" transform="matrix(50,0,0,-50,193.197,191.988)"
font-family="MS Shell Dlg 2" font-size="8.25" font-weight="400" font-style="normal" 
>
<path vector-effect="non-scaling-stroke" fill-rule="evenodd" d="M1.16105,-0.160249 C1.16105,-0.146442 1.14986,-0.135249 1.13605,-0.135249 C1.12225,-0.135249 1.11105,-0.146442 1.11105,-0.160249 C1.11105,-0.174056 1.12225,-0.185249 1.13605,-0.185249 C1.14986,-0.185249 1.16105,-0.174056 1.16105,-0.160249 "/>
<path vector-effect="non-scaling-stroke" fill-rule="evenodd" d="M-0.54865,0.839751 C-0.54865,0.853558 -0.559843,0.864751 -0.57365,0.864751 C-0.587457,0.864751 -0.59865,0.853558 -0.59865,0.839751 C-0.59865,0.825944 -0.587457,0.814751 -0.57365,0.814751 C-0.559843,0.814751 -0.54865,0.825944 -0.54865,0.839751 "/>
</g>

<g fill="none" stroke="#a0a0a4" stroke-opacity="1" stroke-width="1" stroke-linecap="square" stroke-linejoin="bevel" transform="matrix(50,0,0,-50,200,200)"
font-family="MS Shell Dlg 2" font-size="8.25" font-weight="400" font-style="normal" 
>
</g>

<g fill="#ffffff" fill-opacity="0.498039" stroke="none" transform="matrix(43.8145,24.0893,24.0893,-43.8145,204.085,200.612)"
font-family="MS Shell Dlg 2" font-size="8.25" font-weight="400" font-style="normal" 
>
<path vector-effect="non-scaling-stroke" fill-rule="evenodd" d="M0,0 L-1.13605,-0.160249 L-0.57365,0.839751 L0.57365,0.839751 L1.13605,-0.160249 L0,0"/>
</g>

<g fill="none" stroke="#0000c8" stroke-opacity="1" stroke-width="1" stroke-linecap="square" stroke-linejoin="bevel" transform="matrix(43.8145,24.0893,24.0893,-43.8145,204.085,200.612)"
font-family="MS Shell Dlg 2" font-size="8.25" font-weight="400" font-style="normal" 
>
<path vector-effect="non-scaling-stroke" fill-rule="evenodd" d="M0,0 L-1.13605,-0.160249 L-0.57365,0.839751 L0.57365,0.839751 L1.13605,-0.160249 L0,0"/>
</g>

<g fill="none" stroke="#c8c8c8" stroke-opacity="1" stroke-dasharray="4,2" stroke-dashoffset="0" stroke-width="1" stroke-linecap="square" stroke-linejoin="bevel" transform="matrix(43.8145,24.0893,24.0893,-43.8145,204.085,200.612)"
font-family="MS Shell Dlg 2" font-size="8.25" font-weight="400" font-style="normal" 
>
<path vector-effect="non-scaling-stroke" fill-rule="evenodd" d="M-0.57365,0.839751 L0,0 L0.57365,0.839751"/>
</g>

<g fill="#0000c8" fill-opacity="1" stroke="#000000" stroke-opacity="1" stroke-width="1" stroke-linecap="square" stroke-linejoin="bevel" transform="matrix(43.8145,24.0893,24.0893,-43.8145,204.085,200.612)"
font-family="MS Shell Dlg 2" font-size="8.25" font-weight="400" font-style="normal" 
>
<path vector-effect="non-scaling-stroke" fill-rule="evenodd" d="M1.16105,-0.160249 C1.16105,-0.146442 1.14986,-0.135249 1.13605,-0.135249 C1.12225,-0.135249 1.11105,-0.146442 1.11105,-0.160249 C1.11105,-0.174056 1.12225,-0.185249 1.13605,-0.185249 C1.14986,-0.185249 1.16105,-0.174056 1.16105,-0.160249 "/>
<path vector-effect="non-scaling-stroke" fill-rule="evenodd" d="M-0.54865,0.839751 C-0.54865,0.853558 -0.559843,0.864751 -0.57365,0.864751 C-0.587457,0.864751 -0.59865,0.853558 -0.59865,0.839751 C-0.59865,0.825944 -0.587457,0.814751 -0.57365,0.814751 C-0.559843,0.814751 -0.54865,0.825944 -0.54865,0.839751 "/>
</g>

<g fill="none" stroke="#000000" stroke-opacity="1" stroke-width="1" stroke-linecap="square" stroke-linejoin="bevel" transform="matrix(43.8145,24.0893,24.0893,-43.8145,204.085,200.612)"
font-family="MS Shell Dlg 2" font-size="8.25" font-weight="400" font-style="normal" 
>
<path vector-effect="non-scaling-stroke" fill-rule="evenodd" d="M1.18605,-0.160249 C1.18605,-0.132634 1.16367,-0.110249 1.13605,-0.110249 C1.10844,-0.110249 1.08605,-0.132634 1.08605,-0.160249 C1.08605,-0.187863 1.10844,-0.210249 1.13605,-0.210249 C1.16367,-0.210249 1.18605,-0.187863 1.18605,-0.160249 "/>
<path vector-effect="non-scaling-stroke" fill-rule="evenodd" d="M-0.52365,0.839751 C-0.52365,0.867366 -0.546036,0.889751 -0.57365,0.889751 C-0.601264,0.889751 -0.62365,0.867366 -0.62365,0.839751 C-0.62365,0.812137 -0.601264,0.789751 -0.57365,0.789751 C-0.546036,0.789751 -0.52365,0.812137 -0.52365,0.839751 "/>
</g>

<g fill="none" stroke="#a0a0a4" stroke-opacity="1" stroke-width="1" stroke-linecap="square" stroke-linejoin="bevel" transform="matrix(50,0,0,-50,200,200)"
font-family="MS Shell Dlg 2" font-size="8.25" font-weight="400" font-style="normal" 
>
</g>

<g fill="none" stroke="#000000" stroke-opacity="1" stroke-width="1" stroke-linecap="square" stroke-linejoin="bevel" transform="matrix(50,0,0,-50,200,200)"
font-family="MS Shell Dlg 2" font-size="8.25" font-weight="400" font-style="normal" 
>
<path vector-effect="non-scaling-stroke" fill-rule="evenodd" d="M-3,0 L0,0 L0,-1 M-3,1 L1,1 L1,-1"/>
</g>

<g fill="none" stroke="#a0a0a4" stroke-opacity="1" stroke-width="1" stroke-linecap="square" stroke-linejoin="bevel" transform="matrix(50,0,0,-50,200,200)"
font-family="MS Shell Dlg 2" font-size="8.25" font-weight="400" font-style="normal" 
>
</g>

<g fill="none" stroke="#a0a0a4" stroke-opacity="1" stroke-width="1" stroke-linecap="square" stroke-linejoin="bevel" transform="matrix(50,0,0,-50,200,325)"
font-family="MS Shell Dlg 2" font-size="8.25" font-weight="400" font-style="normal" 
>
</g>

<g fill="#ffffff" fill-opacity="1" stroke="none" transform="matrix(43.8802,23.9693,23.9693,-43.8802,204.7,325.598)"
font-family="MS Shell Dlg 2" font-size="8.25" font-weight="400" font-style="normal" 
>
<path vector-effect="non-scaling-stroke" fill-rule="evenodd" d="M0,0 L-1.13605,-0.160249 L-0.57365,0.839751 L0.57365,0.839751 L1.13605,-0.160249 L0,0"/>
</g>

<g fill="none" stroke="#dcdcfa" stroke-opacity="1" stroke-width="1" stroke-linecap="square" stroke-linejoin="bevel" transform="matrix(43.8802,23.9693,23.9693,-43.8802,204.7,325.598)"
font-family="MS Shell Dlg 2" font-size="8.25" font-weight="400" font-style="normal" 
>
<path vector-effect="non-scaling-stroke" fill-rule="evenodd" d="M0,0 L-1.13605,-0.160249 L-0.57365,0.839751 L0.57365,0.839751 L1.13605,-0.160249 L0,0"/>
</g>

<g fill="none" stroke="#c8c8c8" stroke-opacity="1" stroke-dasharray="4,2" stroke-dashoffset="0" stroke-width="1" stroke-linecap="square" stroke-linejoin="bevel" transform="matrix(43.8802,23.9693,23.9693,-43.8802,204.7,325.598)"
font-family="MS Shell Dlg 2" font-size="8.25" font-weight="400" font-style="normal" 
>
<path vector-effect="non-scaling-stroke" fill-rule="evenodd" d="M-0.57365,0.839751 L0,0 L0.57365,0.839751"/>
</g>

<g fill="#dcdcfa" fill-opacity="1" stroke="#dcdcfa" stroke-opacity="1" stroke-width="1" stroke-linecap="square" stroke-linejoin="bevel" transform="matrix(43.8802,23.9693,23.9693,-43.8802,204.7,325.598)"
font-family="MS Shell Dlg 2" font-size="8.25" font-weight="400" font-style="normal" 
>
<path vector-effect="non-scaling-stroke" fill-rule="evenodd" d="M0.59865,0.839751 C0.59865,0.853558 0.587457,0.864751 0.57365,0.864751 C0.559843,0.864751 0.54865,0.853558 0.54865,0.839751 C0.54865,0.825944 0.559843,0.814751 0.57365,0.814751 C0.587457,0.814751 0.59865,0.825944 0.59865,0.839751 "/>
<path vector-effect="non-scaling-stroke" fill-rule="evenodd" d="M-0.54865,0.839751 C-0.54865,0.853558 -0.559843,0.864751 -0.57365,0.864751 C-0.587457,0.864751 -0.59865,0.853558 -0.59865,0.839751 C-0.59865,0.825944 -0.587457,0.814751 -0.57365,0.814751 C-0.559843,0.814751 -0.54865,0.825944 -0.54865,0.839751 "/>
</g>

<g fill="none" stroke="#a0a0a4" stroke-opacity="1" stroke-width="1" stroke-linecap="square" stroke-linejoin="bevel" transform="matrix(50,0,0,-50,200,325)"
font-family="MS Shell Dlg 2" font-size="8.25" font-weight="400" font-style="normal" 
>
</g>

<g fill="#ffffff" fill-opacity="0.498039" stroke="none" transform="matrix(24.5099,43.5806,43.5806,-24.5099,199.343,320.582)"
font-family="MS Shell Dlg 2" font-size="8.25" font-weight="400" font-style="normal" 
>
<path vector-effect="non-scaling-stroke" fill-rule="evenodd" d="M0,0 L-1.13605,-0.160249 L-0.57365,0.839751 L0.57365,0.839751 L1.13605,-0.160249 L0,0"/>
</g>

<g fill="none" stroke="#0000c8" stroke-opacity="1" stroke-width="1" stroke-linecap="square" stroke-linejoin="bevel" transform="matrix(24.5099,43.5806,43.5806,-24.5099,199.343,320.582)"
font-family="MS Shell Dlg 2" font-size="8.25" font-weight="400" font-style="normal" 
>
<path vector-effect="non-scaling-stroke" fill-rule="evenodd" d="M0,0 L-1.13605,-0.160249 L-0.57365,0.839751 L0.57365,0.839751 L1.13605,-0.160249 L0,0"/>
</g>

<g fill="none" stroke="#c8c8c8" stroke-opacity="1" stroke-dasharray="4,2" stroke-dashoffset="0" stroke-width="1" stroke-linecap="square" stroke-linejoin="bevel" transform="matrix(24.5099,43.5806,43.5806,-24.5099,199.343,320.582)"
font-family="MS Shell Dlg 2" font-size="8.25" font-weight="400" font-style="normal" 
>
<path vector-effect="non-scaling-stroke" fill-rule="evenodd" d="M-0.57365,0.839751 L0,0 L0.57365,0.839751"/>
</g>

<g fill="#0000c8" fill-opacity="1" stroke="#000000" stroke-opacity="1" stroke-width="1" stroke-linecap="square" stroke-linejoin="bevel" transform="matrix(24.5099,43.5806,43.5806,-24.5099,199.343,320.582)"
font-family="MS Shell Dlg 2" font-size="8.25" font-weight="400" font-style="normal" 
>
<path vector-effect="non-scaling-stroke" fill-rule="evenodd" d="M0.59865,0.839751 C0.59865,0.853558 0.587457,0.864751 0.57365,0.864751 C0.559843,0.864751 0.54865,0.853558 0.54865,0.839751 C0.54865,0.825944 0.559843,0.814751 0.57365,0.814751 C0.587457,0.814751 0.59865,0.825944 0.59865,0.839751 "/>
<path vector-effect="non-scaling-stroke" fill-rule="evenodd" d="M-0.54865,0.839751 C-0.54865,0.853558 -0.559843,0.864751 -0.57365,0.864751 C-0.587457,0.864751 -0.59865,0.853558 -0.59865,0.839751 C-0.59865,0.825944 -0.587457,0.814751 -0.57365,0.814751 C-0.559843,0.814751 -0.54865,0.825944 -0.54865,0.839751 "/>
</g>

<g fill="none" stroke="#000000" stroke-opacity="1" stroke-width="1" stroke-linecap="square" stroke-linejoin="bevel" transform="matrix(24.5099,43.5806,43.5806,-24.5099,199.343,320.582)"
font-family="MS Shell Dlg 2" font-size="8.25" font-weight="400" font-style="normal" 
>
<path vector-effect="non-scaling-stroke" fill-rule="evenodd" d="M0.62365,0.839751 C0.62365,0.867366 0.601264,0.889751 0.57365,0.889751 C0.546036,0.889751 0.52365,0.867366 0.52365,0.839751 C0.52365,0.812137 0.546036,0.789751 0.57365,0.789751 C0.601264,0.789751 0.62365,0.812137 0.62365,0.839751 "/>
<path vector-effect="non-scaling-stroke" fill-rule="evenodd" d="M-0.52365,0.839751 C-0.52365,0.867366 -0.546036,0.889751 -0.57365,0.889751 C-0.601264,0.889751 -0.62365,0.867366 -0.62365,0.839751 C-0.62365,0.812137 -0.601264,0.789751 -0.57365,0.789751 C-0.546036,0.789751 -0.52365,0.812137 -0.52365,0.839751 "/>
</g>

<g fill="none" stroke="#a0a0a4" stroke-opacity="1" stroke-width="1" stroke-linecap="square" stroke-linejoin="bevel" transform="matrix(50,0,0,-50,200,325)"
font-family="MS Shell Dlg 2" font-size="8.25" font-weight="400" font-style="normal" 
>
</g>

<g fill="none" stroke="#000000" stroke-opacity="1" stroke-width="1" stroke-linecap="square" stroke-linejoin="bevel" transform="matrix(50,0,0,-50,200,325)"
font-family="MS Shell Dlg 2" font-size="8.25" font-weight="400" font-style="normal" 
>
<path vector-effect="non-scaling-stroke" fill-rule="evenodd" d="M-3,0 L0,0 L0,-1 M-3,1 L1,1 L1,-1"/>
</g>

<g fill="none" stroke="#a0a0a4" stroke-opacity="1" stroke-width="1" stroke-linecap="square" stroke-linejoin="bevel" transform="matrix(50,0,0,-50,200,200)"
font-family="MS Shell Dlg 2" font-size="8.25" font-weight="400" font-style="normal" 
>
</g>
</g>
</svg>
